HIERARCHY
ROOT Hips
{
	OFFSET 11.386039 79.131096 -4.813618
	CHANNELS 6 Xposition Yposition Zposition Xrotation Yrotation Zrotation
	JOINT Chest
	{
		OFFSET 0.698955 13.615303 0.537687
		CHANNELS 3 Xrotation Yrotation Zrotation
		JOINT Chest2
		{
			OFFSET -11.353996 16.074150 8.472015
			CHANNELS 3 Xrotation Yrotation Zrotation
			JOINT Chest3
			{
				OFFSET -6.664364 11.916260 6.033991
				CHANNELS 3 Xrotation Yrotation Zrotation
				JOINT Neck
				{
					OFFSET -6.882091 14.718300 5.884263
					CHANNELS 3 Xrotation Yrotation Zrotation
					JOINT Head
					{
						OFFSET -6.682932 7.583115 2.768110
						CHANNELS 3 Xrotation Yrotation Zrotation
						End Site
						{
							OFFSET -6.636719 7.633163 2.741623
						}
					}
				}
				JOINT LeftCollar
				{
					OFFSET -3.680435 10.157570 9.224017
					CHANNELS 3 Xrotation Yrotation Zrotation
					JOINT LeftUpArm
					{
						OFFSET 16.867624 -0.642578 4.854883
						CHANNELS 3 Xrotation Yrotation Zrotation
						JOINT LeftLowArm
						{
							OFFSET 18.967003 -27.878380 -1.666731
							CHANNELS 3 Xrotation Yrotation Zrotation
							JOINT LeftHand
							{
								OFFSET 13.082617 -26.926048 2.186436
								CHANNELS 3 Xrotation Yrotation Zrotation
								End Site
								{
									OFFSET 2.859287 -5.884842 0.477861
								}
							}
						}
					}
				}
				JOINT RightCollar
				{
					OFFSET -9.958765 9.444939 3.663998
					CHANNELS 3 Xrotation Yrotation Zrotation
					JOINT RightUpArm
					{
						OFFSET -7.024146 -5.741302 -15.039786
						CHANNELS 3 Xrotation Yrotation Zrotation
						JOINT RightLowArm
						{
							OFFSET -0.195482 -32.325699 -9.733733
							CHANNELS 3 Xrotation Yrotation Zrotation
							JOINT RightHand
							{
								OFFSET -9.023546 -28.616848 0.778693
								CHANNELS 3 Xrotation Yrotation Zrotation
								End Site
								{
									OFFSET -1.972183 -6.254498 0.170192
								}
							}
						}
					}
				}
			}
		}
	}
	JOINT LeftUpLeg
	{
		OFFSET 5.911872 -0.622292 8.067322
		CHANNELS 3 Xrotation Yrotation Zrotation
		JOINT LeftLowLeg
		{
			OFFSET -36.242096 -5.733826 29.960346
			CHANNELS 3 Xrotation Yrotation Zrotation
			JOINT LeftFoot
			{
				OFFSET 24.818525 -31.797165 -19.327423
				CHANNELS 3 Xrotation Yrotation Zrotation
				JOINT LeftToe
				{
					OFFSET -14.434605 -17.717270 6.107406
					CHANNELS 3 Xrotation Yrotation Zrotation
					End Site
					{
						OFFSET -20.413902 -3.879225 11.304115
					}
				}
			}
		}
	}
	JOINT RightUpLeg
	{
		OFFSET -5.911884 0.622093 -8.067332
		CHANNELS 3 Xrotation Yrotation Zrotation
		JOINT RightLowLeg
		{
			OFFSET -35.578056 -28.888668 11.985745
			CHANNELS 3 Xrotation Yrotation Zrotation
			JOINT RightFoot
			{
				OFFSET 37.527645 -7.593349 -23.121380
				CHANNELS 3 Xrotation Yrotation Zrotation
				JOINT RightToe
				{
					OFFSET 11.097572 -19.278742 -8.045565
					CHANNELS 3 Xrotation Yrotation Zrotation
					End Site
					{
						OFFSET -3.572185 -23.169703 -3.156013
					}
				}
			}
		}
	}
}
MOTION
Frames: 5
Frame Time: 0.033333
-2.805102 105.683517 -1.111728 5.751112 49.332643 3.450803 -24.006576 9.395642 -31.356418 -4.749323 -2.275769 -3.395327 15.282022 -4.454373 5.374190 -4.518028 15.768318 -7.730734 0.000002 0.000000 -0.000000 -0.320889 8.861479 3.383547 6.021114 -4.300288 -8.129057 1.923917 -4.135189 -10.928560 -0.000002 0.000000 -0.000003 8.088104 -14.525451 -5.104444 4.059937 -1.472192 17.287632 -1.681962 0.105257 18.669269 0.000001 -0.000000 0.000001 39.317069 23.512028 57.123263 -23.938273 56.332617 -90.012051 22.698103 -11.415629 14.059557 -0.000001 0.000003 0.000001 17.311451 3.020223 44.203454 -31.071760 28.648224 -105.659147 -24.339263 4.642632 0.415540 -0.000002 0.000001 0.000000 
-2.804805 105.678337 -1.112556 5.881989 49.449313 3.469077 -24.440970 9.697506 -31.906290 -3.504851 -2.399650 -1.882755 14.380103 -4.602652 4.374833 -4.604651 15.533679 -7.668936 0.000002 -0.000003 0.000002 -0.581136 9.356156 3.516041 5.826554 -4.709937 -8.459794 2.168221 -4.100246 -10.948041 -0.000000 -0.000003 -0.000001 8.184122 -14.512805 -5.174886 3.662661 -1.406449 17.361675 -2.167754 0.266903 18.311756 -0.000001 0.000002 -0.000000 39.319965 23.431270 56.978719 -24.045261 56.490551 -90.016224 23.050051 -11.555795 14.281319 -0.000002 0.000005 0.000001 17.293726 2.997349 44.142444 -31.195960 28.805667 -105.702081 -23.932617 4.561319 0.350545 -0.000002 -0.000004 0.000001 
-2.806700 105.675751 -1.110891 5.968590 49.154170 3.414104 -24.218550 9.565745 -31.684500 -4.096963 -2.362662 -2.582036 14.740593 -4.438179 4.887181 -4.636684 15.473985 -7.575136 0.000003 0.000001 -0.000002 -0.257541 8.869239 3.468259 6.047124 -4.629722 -8.419993 1.744972 -4.353525 -10.803266 -0.000000 -0.000001 0.000001 8.192112 -14.243808 -5.007980 3.539104 -1.222588 17.377311 -1.519719 0.331155 18.423139 -0.000001 -0.000003 -0.000000 39.309231 23.495108 57.056142 -24.140788 56.389905 -89.939842 22.863923 -11.319228 14.202000 -0.000000 0.000001 0.000000 17.376688 3.011566 44.184893 -31.279893 28.958629 -105.641457 -24.027432 4.537731 0.296013 -0.000002 -0.000001 0.000001 
-2.810266 105.681854 -1.113799 6.185807 49.184322 3.163158 -24.586700 9.727810 -31.977682 -3.231734 -2.540279 -1.494612 14.195490 -4.586516 4.162406 -4.762116 15.251047 -7.619946 0.000002 0.000002 -0.000000 -0.378408 8.901570 3.542604 5.996715 -4.737582 -8.553230 2.159690 -4.109444 -10.437900 -0.000001 -0.000003 -0.000003 8.195375 -14.617442 -5.039285 3.343001 -1.156830 17.235135 -1.591958 0.259697 18.384938 -0.000001 -0.000002 0.000001 39.024460 23.435948 57.057949 -24.169009 56.375022 -89.980455 22.758161 -11.155947 14.167337 -0.000000 -0.000001 0.000000 17.191473 3.066492 44.172356 -31.401115 29.131122 -105.660895 -24.025429 4.421452 -0.029539 -0.000000 -0.000002 0.000002 
-2.814771 105.688599 -1.120423 6.394181 49.073721 3.072793 -24.812177 9.840821 -32.175802 -3.199670 -2.602870 -1.426711 14.440601 -4.939701 3.983466 -4.712164 15.405119 -7.683812 0.000002 -0.000003 -0.000002 -0.738492 9.561311 3.696361 5.873816 -4.865468 -8.462861 2.307141 -4.068634 -10.675496 -0.000000 0.000004 -0.000002 8.048971 -13.781363 -4.848581 3.134900 -1.109281 17.251299 -1.511402 0.286564 18.340822 0.000002 0.000000 0.000001 38.904662 23.363775 56.987246 -24.128652 56.375207 -90.039761 22.605515 -10.957774 14.145131 -0.000001 0.000003 0.000001 16.962490 3.049234 43.936920 -31.384367 28.984198 -105.428922 -24.113583 4.424012 -0.088305 0.000000 0.000001 0.000001 
